<?xml version="1.0" standalone="no"?>
<!DOCTYPE svg PUBLIC "-//W3C//DTD SVG 20010904//EN"
 "http://www.w3.org/TR/2001/REC-SVG-20010904/DTD/svg10.dtd">
<svg version="1.0" xmlns="http://www.w3.org/2000/svg"
 width="260.000000pt" height="260.000000pt" viewBox="0 0 260.000000 260.000000"
 preserveAspectRatio="xMidYMid meet">
<metadata>
Created by potrace 1.11, written by Peter Selinger 2001-2013
</metadata>
<g transform="translate(0.000000,260.000000) scale(0.100000,-0.100000)"
fill="#000000" stroke="none">
<path d="M555 1480 c-47 -19 -85 -83 -85 -142 0 -50 36 -114 74 -132 43 -20
69 -20 109 0 21 12 32 13 35 5 2 -6 12 -11 23 -11 17 0 19 8 19 75 l0 75 -61
0 c-57 0 -60 -1 -57 -22 2 -17 11 -24 31 -26 32 -4 34 -13 9 -35 -25 -23 -68
-21 -92 3 -23 23 -28 106 -7 132 30 39 89 42 108 7 11 -22 69 -27 69 -6 0 21
-29 56 -60 72 -31 16 -83 19 -115 5z"/>
<path d="M1080 1477 c-93 -47 -94 -223 0 -269 127 -64 244 67 186 207 -27 64
-121 95 -186 62z m115 -70 c23 -32 19 -113 -5 -137 -46 -46 -105 -15 -116 61
-12 83 77 138 121 76z"/>
<path d="M1648 1474 c-46 -24 -63 -73 -60 -166 4 -77 91 -133 170 -110 63 19
86 52 90 132 6 109 -36 161 -131 160 -23 -1 -54 -7 -69 -16z m95 -45 c74 -34
55 -179 -23 -179 -55 0 -88 79 -59 144 9 19 31 37 56 45 1 1 13 -4 26 -10z"/>
<path d="M780 1340 l0 -140 100 0 100 0 0 31 0 31 -65 -4 -65 -3 0 113 0 112
-35 0 -35 0 0 -140z"/>
<path d="M1320 1339 l0 -141 96 4 c86 3 98 5 115 27 23 28 25 78 4 108 -10 14
-12 24 -5 28 5 3 10 24 10 45 0 57 -24 70 -132 70 l-88 0 0 -141z m157 75 c8
-22 -9 -35 -56 -41 -40 -6 -41 -5 -41 26 0 30 1 31 45 31 32 0 47 -5 52 -16z
m1 -106 c16 -16 15 -23 -4 -42 -9 -9 -32 -16 -55 -16 -38 0 -39 1 -39 35 0 35
1 35 43 35 24 0 48 -5 55 -12z"/>
<path d="M1880 1474 c0 -4 18 -35 39 -69 l40 -62 -23 -34 c-12 -19 -32 -51
-45 -71 l-23 -38 39 0 c34 0 40 4 61 41 26 45 40 42 62 -11 11 -26 18 -30 51
-30 22 0 39 2 39 5 0 2 -18 33 -40 67 -22 35 -40 68 -40 73 0 6 16 35 35 65
19 30 35 58 35 63 0 4 -16 7 -35 7 -31 0 -37 -5 -56 -41 l-21 -42 -24 42 c-22
35 -30 41 -60 41 -19 0 -34 -3 -34 -6z"/>
</g>
</svg>
